<svg width="288" height="192" viewBox="0 0 288 192" fill="none" xmlns="http://www.w3.org/2000/svg">
  <path
    d="M196.954 107.948C199.834 97.6233 202.138 87.1386 203.866 76.5578C205.626 72.5499 207.61 68.6381 209.786 64.8547C212.474 60.2055 215.641 55.909 218.585 51.4202C221.209 47.4123 223.577 42.9876 223.865 38.146C224.089 34.3626 223.257 30.2905 220.729 27.3407C217.945 24.0703 213.658 22.7877 209.466 23.1725C204.922 23.5573 200.794 25.962 197.274 28.7515C193.466 31.7975 189.914 35.2603 186.555 38.7552C180.059 45.5206 174.299 52.9913 169.339 60.943C165.691 59.5322 162.171 57.8328 158.652 56.1656C153.532 53.7287 148.348 51.5805 142.844 50.1377C133.021 47.5726 121.949 46.5786 112.317 50.3621C103.614 53.7929 96.2859 61.6163 96.1579 71.3635C96.0939 75.2111 97.2139 78.5777 99.0698 81.5276C95.102 83.7079 91.7421 86.818 89.6622 90.9221C87.5503 95.0903 87.1343 100.188 88.8622 104.549C89.5022 106.152 90.3982 107.595 91.4861 108.877C88.2542 111.827 85.3423 115.579 83.9984 119.779C82.7184 123.755 83.4544 127.763 85.5663 131.322C86.1743 132.316 86.8783 133.246 87.6463 134.143C84.0944 137.253 82.9424 142.352 83.9984 146.904C85.2144 152.259 89.1182 156.427 93.3101 159.73C96.5419 162.263 99.9978 164.539 103.582 166.559C105.374 167.681 107.262 168.74 109.149 169.701C111.165 170.695 113.277 171.625 115.421 172.266C116.893 172.715 118.397 173.1 119.901 173.293C120.925 173.421 121.949 173.485 122.973 173.453C123.485 173.453 123.997 173.421 124.477 173.357C125.885 173.228 127.293 172.844 128.669 172.395C129.629 172.074 130.557 171.657 131.453 171.144C132.157 170.76 132.861 170.343 133.501 169.894C137.532 170.856 141.628 171.401 145.788 171.337C154.652 171.176 162.971 167.585 169.691 161.846C177.083 155.562 182.299 147.193 186.267 138.408C190.714 128.661 194.042 118.304 196.954 107.948Z"
    fill="#EF9E81" />
  <path
    d="M88.1515 135.176C94.2771 139.125 100.627 142.754 107.138 145.997C110.345 147.603 113.616 149.144 116.952 150.493C120.255 151.842 123.655 152.998 127.183 153.704C130.454 154.346 134.014 154.668 137.317 154.025C139.37 153.64 141.583 153.126 143.347 151.97C144.405 151.296 145.303 150.429 146.137 149.498C146.875 148.663 147.644 147.763 148.189 146.8C149.055 145.227 149.536 143.461 149.729 141.694C150.274 137.231 148.831 132.607 145.239 129.781C144.726 129.363 144.148 128.978 143.571 128.657C143.122 128.4 142.737 129.074 143.154 129.363C145.239 130.584 146.907 132.318 147.933 134.533C148.799 136.396 149.12 138.515 149.023 140.57C148.927 142.337 148.574 144.103 147.837 145.708C147.516 146.415 147.099 147.057 146.618 147.667C145.752 148.791 144.79 149.851 143.699 150.75C142.16 152.002 140.268 152.548 138.376 152.998C135.233 153.768 131.929 153.672 128.754 153.19C121.891 152.131 115.444 149.176 109.255 146.158C102.904 143.075 96.7146 139.639 90.7493 135.882C90.0116 135.433 89.306 134.951 88.5684 134.501C88.1194 134.212 87.7025 134.919 88.1515 135.176Z"
    fill="#C4674E" />
  <path
    d="M94.1168 110.064C101.269 113.436 108.485 116.712 115.701 119.858C122.628 122.909 129.62 125.96 136.932 127.983C140.46 128.978 144.245 129.909 147.933 129.267C150.659 128.786 153.161 127.405 155.085 125.446C157.041 123.455 158.452 120.886 159.03 118.124C159.382 116.519 159.254 114.849 158.966 113.243C158.1 108.587 155.277 104.381 151.172 102.036C150.563 101.683 149.921 101.394 149.248 101.105C148.767 100.913 148.574 101.683 149.023 101.876C153.481 103.738 156.688 107.592 157.907 112.216C158.324 113.821 158.549 115.523 158.356 117.161C158.1 119.537 156.913 121.946 155.438 123.808C153.738 125.895 151.461 127.469 148.863 128.208C145.431 129.139 141.839 128.432 138.472 127.533C131.384 125.703 124.617 122.845 117.914 119.923C110.922 116.872 103.995 113.757 97.0674 110.546C96.2015 110.129 95.3355 109.743 94.4696 109.326C94.0527 109.165 93.6678 109.872 94.1168 110.064Z"
    fill="#C4674E" />
  <path
    d="M101.654 82.8657C109.768 86.2374 117.625 90.1872 125.611 93.7516C129.556 95.5177 133.565 97.1875 137.638 98.6647C141.775 100.174 146.073 101.651 150.466 102.133C154.283 102.582 158.356 102.069 161.595 99.8207C163.071 98.7931 164.321 97.4444 165.123 95.8388C165.957 94.2012 166.342 92.3387 166.31 90.5083C166.31 86.7191 164.61 83.2189 162.108 80.4252C159.382 77.3746 155.79 75.2552 152.07 73.6175C148.895 72.2046 145.624 71.0486 142.384 69.7963C139.209 68.576 136.098 67.2915 133.02 65.8786C132.025 65.4291 131.031 64.9795 130.037 64.4978C129.588 64.273 129.171 64.9795 129.62 65.2043C132.955 66.7456 136.323 68.2228 139.722 69.6036C142.577 70.7275 145.431 71.8193 148.286 72.9111C152.102 74.3882 155.919 76.0902 159.126 78.6912C161.948 81.0032 164.353 84.086 165.187 87.6825C166.021 91.2148 165.284 95.1966 162.686 97.8298C160.088 100.463 156.271 101.491 152.647 101.426C148.286 101.362 143.988 99.9491 139.915 98.5683C135.842 97.1875 131.865 95.582 127.952 93.88C120.127 90.4762 112.494 86.6228 104.636 83.2511C103.706 82.8336 102.744 82.4483 101.814 82.0629C101.397 81.8703 101.172 82.673 101.654 82.8657Z"
    fill="#C4674E" />
  <path
    d="M134.174 168.315C135.361 165.874 135.842 163.081 135.521 160.383C135.361 159.067 135.04 157.75 134.527 156.498C134.078 155.406 133.501 153.961 132.282 153.576C131.801 153.415 131.576 154.186 132.057 154.346C132.603 154.507 132.923 155.053 133.18 155.534C133.469 156.08 133.725 156.626 133.95 157.204C134.367 158.36 134.655 159.548 134.751 160.769C134.976 163.209 134.527 165.682 133.469 167.897C133.244 168.379 133.95 168.797 134.174 168.315Z"
    fill="#C4674E" />
  <path
    d="M147.259 95.9672C147.42 91.022 149.569 86.2374 153.129 82.8336C153.513 82.4803 152.936 81.9023 152.551 82.2555C148.831 85.82 146.618 90.7973 146.426 95.9351C146.458 96.481 147.259 96.481 147.259 95.9672Z"
    fill="#C4674E" />
  <path
    d="M151.878 83.9254C153.674 84.4392 155.47 85.0493 157.105 85.9805C158.42 86.7191 159.639 87.8109 159.896 89.3844C160.152 90.9257 159.447 92.4992 158.324 93.5268C157.137 94.6507 155.47 95.1645 153.866 95.2929C151.653 95.4535 149.472 94.8434 147.356 94.2332C146.874 94.1048 146.65 94.8755 147.131 95.0039C150.851 96.0957 155.309 97.027 158.613 94.3296C159.896 93.2699 160.761 91.6322 160.729 89.9303C160.729 88.1641 159.703 86.7512 158.324 85.7879C157.49 85.2099 156.56 84.7603 155.63 84.3749C154.475 83.8933 153.289 83.4758 152.07 83.1226C151.589 82.9941 151.397 83.7648 151.878 83.9254Z"
    fill="#C4674E" />
  <path
    d="M137.478 121.464C137.638 116.165 139.947 111.06 143.764 107.399C144.148 107.046 143.571 106.468 143.186 106.821C139.209 110.61 136.836 115.941 136.644 121.464C136.644 121.978 137.445 121.978 137.478 121.464Z"
    fill="#C4674E" />
  <path
    d="M142.449 108.555C144.341 109.101 146.265 109.775 147.997 110.738C149.44 111.541 150.787 112.729 151.044 114.463C151.268 116.101 150.531 117.771 149.344 118.863C148.029 120.083 146.233 120.629 144.501 120.757C142.128 120.918 139.819 120.276 137.574 119.633C137.093 119.505 136.868 120.276 137.349 120.404C141.262 121.56 146.009 122.556 149.504 119.762C150.915 118.638 151.846 116.872 151.846 115.041C151.846 113.147 150.723 111.638 149.248 110.578C148.35 109.936 147.356 109.486 146.361 109.069C145.143 108.555 143.892 108.105 142.641 107.752C142.16 107.624 141.935 108.394 142.449 108.555Z"
    fill="#C4674E" />
  <path
    d="M128.818 147.314C128.979 142.015 131.288 136.91 135.104 133.249C135.489 132.896 134.912 132.318 134.527 132.671C130.55 136.46 128.177 141.791 127.984 147.314C127.984 147.828 128.786 147.828 128.818 147.314Z"
    fill="#C4674E" />
  <path
    d="M133.789 134.373C135.682 134.919 137.606 135.593 139.338 136.556C140.781 137.359 142.128 138.547 142.385 140.281C142.609 141.919 141.871 143.589 140.685 144.681C139.37 145.901 137.574 146.447 135.842 146.575C133.469 146.736 131.16 146.094 128.915 145.451C128.433 145.323 128.209 146.094 128.69 146.222C132.603 147.378 137.349 148.374 140.845 145.58C142.256 144.456 143.186 142.69 143.186 140.859C143.186 138.965 142.064 137.456 140.589 136.396C139.691 135.754 138.696 135.304 137.702 134.887C136.483 134.373 135.233 133.923 133.982 133.57C133.501 133.442 133.276 134.244 133.789 134.373Z"
    fill="#C4674E" />
  <path
    d="M118.523 166.806C118.652 162.824 120.383 158.97 123.27 156.209C123.655 155.856 123.077 155.278 122.693 155.631C119.646 158.521 117.85 162.599 117.721 166.774C117.721 167.32 118.523 167.32 118.523 166.806Z"
    fill="#C4674E" />
  <path
    d="M122.179 157.108C123.591 157.525 125.034 158.007 126.317 158.746C127.375 159.356 128.401 160.223 128.594 161.507C128.786 162.727 128.209 164.012 127.311 164.815C126.317 165.714 124.97 166.099 123.687 166.196C121.923 166.292 120.223 165.842 118.523 165.329C118.042 165.2 117.818 165.971 118.299 166.099C121.314 166.966 124.938 167.737 127.6 165.585C128.69 164.718 129.396 163.37 129.396 161.957C129.396 160.512 128.562 159.324 127.407 158.489C125.932 157.429 124.072 156.819 122.34 156.337C121.891 156.177 121.698 156.947 122.179 157.108Z"
    fill="#C4674E" />
  <path
    d="M219.773 132.51L217.111 123.358L214.642 132.51L205.79 135.432L214.642 138.419L217.111 148.341L219.901 138.483L228.432 135.432L219.773 132.51Z"
    fill="#FFD62A" />
  <path
    d="M72.4684 62.0895L69.8706 53.1303L67.4331 62.0574L58.7738 64.9474L67.4331 67.8375L69.8706 77.5673L72.5967 67.9017L80.9673 64.9474L72.4684 62.0895Z"
    fill="#FFD62A" />
  <path
    d="M237.028 108.972L235.424 103.449L233.917 108.972L228.593 110.706L233.917 112.505L235.424 118.509L237.092 112.569L242.255 110.706L237.028 108.972Z"
    fill="#FFD62A" />
  <path
    d="M53.6745 91.7926L52.103 86.3978L50.6277 91.7926L45.4 93.5266L50.6277 95.2607L52.103 101.137L53.7386 95.2928L58.7739 93.5266L53.6745 91.7926Z"
    fill="#FFD62A" />
  <path
    d="M154.957 22.4635L153.674 18L152.455 22.4635L148.157 23.8764L152.455 25.3215L153.674 30.1703L155.021 25.3536L159.19 23.8764L154.957 22.4635Z"
    fill="#FFD62A" />
  <path
    d="M71.1534 160.255L69.8706 155.791L68.6518 160.255L64.3542 161.7L68.6518 163.145L69.8706 167.962L71.2176 163.177L75.3869 161.7L71.1534 160.255Z"
    fill="#FFD62A" />
</svg>